HIERARCHY
ROOT Hips
{
	OFFSET 0.000000 0.000000 0.000000
	CHANNELS 6 Xposition Yposition Zposition Zrotation Yrotation Xrotation 
	JOINT LHipJoint
	{
		OFFSET 0.000000 0.000000 0.000000
		CHANNELS 3 Zrotation Yrotation Xrotation
		JOINT LeftUpLeg
		{
			OFFSET 1.363060 -1.794630 0.839290
			CHANNELS 3 Zrotation Yrotation Xrotation
			JOINT LeftLeg
			{
				OFFSET 2.448110 -6.726130 0.000000
				CHANNELS 3 Zrotation Yrotation Xrotation
				JOINT LeftFoot
				{
					OFFSET 2.562200 -7.039590 0.000000
					CHANNELS 3 Zrotation Yrotation Xrotation
					JOINT LeftToeBase
					{
						OFFSET 0.157640 -0.433110 2.322550
						CHANNELS 3 Zrotation Yrotation Xrotation
						End Site
						{
							OFFSET 0.000000 0.000000 0.000000
						}
					}
				}
			}
		}
	}
	JOINT RHipJoint
	{
		OFFSET 0.000000 0.000000 0.000000
		CHANNELS 3 Zrotation Yrotation Xrotation
		JOINT RightUpLeg
		{
			OFFSET -1.305520 -1.794630 0.839290
			CHANNELS 3 Zrotation Yrotation Xrotation
			JOINT RightLeg
			{
				OFFSET -2.542530 -6.985550 0.000000
				CHANNELS 3 Zrotation Yrotation Xrotation
				JOINT RightFoot
				{
					OFFSET -2.568260 -7.056230 0.000000
					CHANNELS 3 Zrotation Yrotation Xrotation
					JOINT RightToeBase
					{
						OFFSET -0.164730 -0.452590 2.363150
						CHANNELS 3 Zrotation Yrotation Xrotation
						End Site
						{
							OFFSET 0.000000 0.000000 0.000000
						}
					}
				}
			}
		}
	}
	JOINT LowerBack
	{
		OFFSET 0.000000 0.000000 0.000000
		CHANNELS 3 Zrotation Yrotation Xrotation
		JOINT Spine
		{
			OFFSET 0.028270 2.035590 -0.193380
			CHANNELS 3 Zrotation Yrotation Xrotation
			JOINT Spine1
			{
				OFFSET 0.056720 2.048850 -0.042750
				CHANNELS 3 Zrotation Yrotation Xrotation
				JOINT Neck
				{
					OFFSET 0.000000 0.000000 0.000000
					CHANNELS 3 Zrotation Yrotation Xrotation
					JOINT Neck1
					{
						OFFSET -0.054170 1.746240 0.172020
						CHANNELS 3 Zrotation Yrotation Xrotation
						JOINT Head
						{
							OFFSET 0.104070 1.761360 -0.123970
							CHANNELS 3 Zrotation Yrotation Xrotation
							End Site
							{
								OFFSET 0.000000 0.000000 0.000000
							}
						}
					}
				}
				JOINT LeftShoulder
				{
					OFFSET 0.000000 0.000000 0.000000
					CHANNELS 3 Zrotation Yrotation Xrotation
					JOINT LeftArm
					{
						OFFSET 3.362410 1.200890 -0.311210
						CHANNELS 3 Zrotation Yrotation Xrotation
						JOINT LeftForeArm
						{
							OFFSET 4.983000 -0.000000 -0.000000
							CHANNELS 3 Zrotation Yrotation Xrotation
							JOINT LeftHand
							{
								OFFSET 3.483560 -0.000000 -0.000000
								CHANNELS 3 Zrotation Yrotation Xrotation
								JOINT LeftFingerBase
								{
									OFFSET 0.000000 0.000000 0.000000
									CHANNELS 3 Zrotation Yrotation Xrotation
									JOINT LeftHandIndex1
									{
										OFFSET 0.715260 -0.000000 -0.000000
										CHANNELS 3 Zrotation Yrotation Xrotation
										End Site
										{
											OFFSET 0.000000 0.000000 0.000000
										}
									}
								}
								JOINT LThumb
								{
									OFFSET 0.000000 0.000000 0.000000
									CHANNELS 3 Zrotation Yrotation Xrotation
									End Site
									{
										OFFSET 0.000000 0.000000 0.000000
									}
								}
							}
						}
					}
				}
				JOINT RightShoulder
				{
					OFFSET 0.000000 0.000000 0.000000
					CHANNELS 3 Zrotation Yrotation Xrotation
					JOINT RightArm
					{
						OFFSET -3.136600 1.374050 -0.404650
						CHANNELS 3 Zrotation Yrotation Xrotation
						JOINT RightForeArm
						{
							OFFSET -5.241900 -0.000000 -0.000000
							CHANNELS 3 Zrotation Yrotation Xrotation
							JOINT RightHand
							{
								OFFSET -3.444170 -0.000000 -0.000000
								CHANNELS 3 Zrotation Yrotation Xrotation
								JOINT RightFingerBase
								{
									OFFSET 0.000000 0.000000 0.000000
									CHANNELS 3 Zrotation Yrotation Xrotation
									JOINT RightHandIndex1
									{
										OFFSET -0.622530 -0.000000 -0.000000
										CHANNELS 3 Zrotation Yrotation Xrotation
										End Site
										{
											OFFSET 0.000000 0.000000 0.000000
										}
									}
								}
								JOINT RThumb
								{
									OFFSET 0.000000 0.000000 0.000000
									CHANNELS 3 Zrotation Yrotation Xrotation
									End Site
									{
										OFFSET 0.000000 0.000000 0.000000
									}
								}
							}
						}
					}
				}
			}
		}
	}
}
MOTION
Frames: 8
Frame Time: 0.008333
0.560052 18.243484 0.569370 -3.070649 2.814529 41.217380 1.701927 4.485527 -1.075794 23.750408 -57.866691 -40.231244 -1.332536 0.460067 10.131842 -1.820245 29.687767 -46.248662 5.236500 13.645200 41.834500 -1.452956 -5.651932 1.659515 3.411198 32.632857 -35.487840 2.409227 1.068909 0.721137 1.603156 -16.979152 -26.307151 -7.454400 -15.702900 50.572700 1.925528 0.576196 16.360332 12.886349 3.251428 -17.433082 -3.000009 0.562390 -16.810798 0.094335 0.320954 -15.261735 -5.121367 0.283886 -9.825877 -2.971200 -0.158200 -2.164300 -10.181754 -1.580643 1.650451 -83.034909 -22.200866 54.317663 13.985724 -20.563135 -2.060220 1.629785 1.017257 18.157495 12.846071 21.523720 4.043000 -7.125000 0.000000 0.000000 -16.583500 49.741500 -1.987200 9.379826 3.841541 3.046731 74.570799 17.927449 36.948124 -18.694025 23.365462 -2.785762 -0.428162 0.608422 42.483442 -9.419334 7.089306 -1.058700 7.125000 0.000000 0.000000 13.207800 -22.996200 7.185000 
0.562056 18.243284 0.569971 -3.005471 2.794552 41.243218 1.700927 4.493639 -1.075960 23.673495 -57.857189 -40.241558 -1.338646 0.437274 10.079235 -1.939357 29.875621 -46.125199 5.177800 13.581300 41.585300 -1.463035 -5.647554 1.656198 3.329849 32.601976 -35.516601 2.407186 1.062967 0.718647 1.586040 -16.922486 -26.339461 -7.476800 -15.720600 50.655400 1.906972 0.578769 16.340574 12.811758 3.241295 -17.452280 -2.982878 0.563969 -16.781623 0.127158 0.307157 -15.170026 -5.184825 0.247346 -9.933947 -2.991400 -0.173800 -2.205900 -10.183340 -1.590608 1.651386 -83.026487 -22.205560 54.374034 13.989214 -20.568058 -2.061996 1.632060 1.013957 18.065814 12.930311 21.475582 4.062700 -7.125000 0.000000 0.000000 -16.491500 49.711600 -1.963200 9.390824 3.836522 3.045506 74.549892 17.879537 36.933569 -18.755608 23.439756 -2.805154 -0.425641 0.611062 42.431226 -9.393309 7.144205 -1.063200 7.125000 0.000000 0.000000 13.222100 -22.946900 7.208600 
0.563359 18.243484 0.570572 -3.011795 2.814634 41.284774 1.710789 4.484574 -1.081613 23.638762 -57.765773 -40.250516 -1.343299 0.435586 10.040914 -1.971917 29.864282 -46.033590 5.157800 13.559300 41.500000 -1.467990 -5.644104 1.648994 3.339131 32.593659 -35.547085 2.407278 1.061234 0.717992 1.585344 -16.924070 -26.342810 -7.482900 -15.725400 50.677800 1.942073 0.581009 16.354704 12.803928 3.258960 -17.544703 -2.999511 0.564600 -16.781063 0.136628 0.310664 -15.087914 -5.213631 0.243545 -9.970712 -3.002200 -0.174300 -2.226800 -10.178251 -1.597524 1.656343 -83.023749 -22.126577 54.372987 13.999611 -20.581991 -2.065306 1.640136 1.007266 18.019627 13.097832 21.424931 4.109700 -7.125000 0.000000 0.000000 -16.325800 49.692200 -1.934600 9.387985 3.840892 3.050935 74.570142 17.801224 36.914737 -18.797962 23.489572 -2.817900 -0.423071 0.607747 42.436174 -9.348185 7.123801 -1.055100 7.125000 0.000000 0.000000 13.253400 -22.967300 7.220300 
0.564862 18.243584 0.571875 -2.978343 2.809321 41.284614 1.693323 4.484217 -1.088547 23.604054 -57.790190 -40.212240 -1.347695 0.418125 10.008005 -1.909818 29.768461 -46.094408 5.192900 13.597800 41.649500 -1.473653 -5.643519 1.646210 3.313893 32.574402 -35.541515 2.408950 1.060053 0.715494 1.606251 -17.000016 -26.341198 -7.464200 -15.710700 50.609100 1.979033 0.575744 16.405339 12.718240 3.248961 -17.598907 -3.003829 0.561322 -16.809973 0.160403 0.317402 -15.045079 -5.229418 0.245764 -9.992949 -3.010800 -0.172900 -2.240300 -10.170069 -1.600671 1.659930 -83.012501 -22.064115 54.379298 13.997517 -20.580020 -2.065051 1.643578 1.003162 17.968079 13.186784 21.377599 4.130900 -7.125000 0.000000 0.000000 -16.229900 49.663300 -1.910900 9.396663 3.837755 3.051996 74.600623 17.733437 36.927181 -18.820080 23.516850 -2.824239 -0.419298 0.601469 42.403230 -9.274362 7.075934 -1.039800 7.125000 0.000000 0.000000 13.305500 -23.014400 7.235300 
0.565863 18.243785 0.573378 -2.933620 2.753466 41.280240 1.679011 4.491152 -1.090556 23.518516 -57.802347 -40.156633 -1.352326 0.400449 9.979282 -1.913182 29.775136 -46.087568 5.197300 13.602600 41.668400 -1.473407 -5.639716 1.642516 3.224973 32.572289 -35.537602 2.403687 1.055778 0.718636 1.533497 -16.755172 -26.424926 -7.535300 -15.766600 50.870900 1.933325 0.577778 16.428349 12.664830 3.235828 -17.606703 -2.968887 0.563391 -16.822802 0.169877 0.324760 -15.046509 -5.249223 0.256334 -9.984964 -3.016500 -0.166700 -2.238600 -10.168747 -1.601516 1.660236 -83.003160 -22.047875 54.394654 13.992912 -20.572489 -2.063351 1.640153 1.010874 17.883879 13.131513 21.430702 4.122000 -7.125000 0.000000 0.000000 -16.298600 49.702400 -1.935400 9.403836 3.834742 3.052538 74.601669 17.695879 36.969207 -18.856097 23.561922 -2.835386 -0.416958 0.594028 42.361890 -9.212194 7.011719 -1.024000 7.125000 0.000000 0.000000 13.350700 -23.075600 7.242000 
0.567066 18.243684 0.574279 -2.924967 2.754985 41.317862 1.680046 4.483832 -1.097282 23.573163 -57.808759 -40.175925 -1.356417 0.380231 9.921140 -1.912277 29.760739 -46.079940 5.193700 13.598700 41.653100 -1.474184 -5.633532 1.635648 3.193876 32.558667 -35.569370 2.401522 1.051678 0.718767 1.504457 -16.660119 -26.460882 -7.556200 -15.782900 50.947800 1.929635 0.579207 16.440127 12.673213 3.246218 -17.681737 -2.969148 0.564599 -16.827609 0.098141 0.326866 -15.027682 -5.168841 0.265538 -9.943756 -2.984400 -0.162700 -2.227900 -10.159761 -1.608072 1.665606 -83.003236 -22.017717 54.393061 13.989052 -20.565942 -2.061648 1.633822 1.023417 17.802997 13.017725 21.522611 4.100400 -7.125000 0.000000 0.000000 -16.432500 49.766600 -1.978600 9.400339 3.833867 3.054905 74.613873 17.649750 36.976476 -18.851386 23.556250 -2.834258 -0.415808 0.600528 42.337295 -9.218759 7.094445 -1.035800 7.125000 0.000000 0.000000 13.341800 -22.999800 7.260800 
0.567667 18.244185 0.574780 -2.903914 2.756428 41.337919 1.678007 4.476503 -1.106493 23.580823 -57.810467 -40.186963 -1.363167 0.367272 9.881786 -1.870899 29.738236 -46.166850 5.227100 13.635100 41.794800 -1.478916 -5.632080 1.631658 3.173694 32.546511 -35.589436 2.404171 1.051212 0.711267 1.575852 -16.892341 -26.381208 -7.490300 -15.731200 50.705200 1.912822 0.586846 16.495159 12.679225 3.263802 -17.771546 -2.958606 0.571138 -16.857488 0.046607 0.329147 -14.952016 -5.132596 0.269024 -9.925467 -2.966900 -0.159400 -2.232800 -10.152020 -1.613274 1.671085 -83.004206 -21.975097 54.485299 14.004142 -20.590013 -2.066539 1.623935 1.047470 17.689844 12.811727 21.732187 4.068400 -7.125000 0.000000 0.000000 -16.693300 49.922100 -2.076700 9.394168 3.834838 3.058420 74.580625 17.570532 37.076675 -18.867408 23.573538 -2.839463 -0.418970 0.595354 42.202422 -9.215139 7.049521 -1.029500 7.125000 0.000000 0.000000 13.346800 -23.039900 7.251000 
0.568969 18.243584 0.574680 -2.859979 2.745647 41.375570 1.674885 4.463341 -1.108471 23.716388 -57.890305 -40.317683 -1.364540 0.362746 9.870124 -1.806247 29.743233 -46.337490 5.281200 13.693600 42.023800 -1.485343 -5.621880 1.626490 3.112209 32.521312 -35.631748 2.404361 1.047225 0.705004 1.608031 -16.998380 -26.355395 -7.456800 -15.704800 50.581500 1.878081 0.588226 16.495952 12.661905 3.260015 -17.809167 -2.930541 0.573610 -16.852371 0.064234 0.340796 -14.911019 -5.165131 0.279450 -9.952811 -2.977700 -0.152900 -2.245100 -10.151724 -1.615918 1.672665 -82.970389 -21.962551 54.580204 14.033632 -20.635359 -2.076784 1.614450 1.064368 17.610616 12.633548 21.867673 4.031900 -7.125000 0.000000 0.000000 -16.901800 50.015400 -2.143600 9.394406 3.836306 3.060541 74.568478 17.538244 37.110255 -18.889539 23.599017 -2.846860 -0.425882 0.588939 42.166580 -9.264557 6.960341 -1.023500 7.125000 0.000000 0.000000 13.318600 -23.117900 7.210300 
